<svg width="36" height="28" viewBox="0 0 36 28" fill="none" xmlns="http://www.w3.org/2000/svg">
<path d="M25.7664 22.8588C24.3291 22.8588 23.1958 24.0197 23.1958 25.4294C23.1958 26.8667 24.3567 28 25.7664 28C27.1761 28 28.337 26.8391 28.337 25.4294C28.337 24.0197 27.2037 22.8588 25.7664 22.8588ZM25.7664 27.2813C24.7437 27.2813 23.9145 26.4521 23.9145 25.4294C23.9145 24.4067 24.7437 23.5775 25.7664 23.5775C26.7891 23.5775 27.6183 24.4067 27.6183 25.4294C27.6183 26.4798 26.7891 27.2813 25.7664 27.2813ZM11.7526 22.8588C10.3153 22.8588 9.18198 24.0197 9.18198 25.4294C9.18198 26.8667 10.3429 28 11.7526 28C13.1622 28 14.3231 26.8391 14.3231 25.4294C14.3231 24.0197 13.1622 22.8588 11.7526 22.8588ZM11.7526 27.2813C10.7299 27.2813 9.90064 26.4521 9.90064 25.4294C9.90064 24.4067 10.7299 23.5775 11.7526 23.5775C12.7753 23.5775 13.6045 24.4067 13.6045 25.4294C13.6045 26.4798 12.7753 27.2813 11.7526 27.2813ZM35.5788 6.96545C35.4406 6.74432 35.2195 6.63376 34.9707 6.63376H6.77724L5.56105 0.580454C5.47813 0.248766 5.20173 0 4.8424 0H1.05562C0.641014 0 0.309326 0.331688 0.309326 0.746298C0.309326 1.16091 0.641014 1.4926 1.05562 1.4926H4.20666L8.2422 21.5597C8.32512 21.8914 8.60153 22.1402 8.96086 22.1402H28.9174C29.2215 22.1402 29.4702 21.9743 29.5808 21.6979L35.6341 7.65647C35.717 7.43534 35.717 7.18658 35.5788 6.96545ZM28.4199 20.6476H9.56895L8.82265 16.9714H30.0231L28.4199 20.6476ZM30.3271 16.2251H8.68445L7.93815 12.5489H31.9303L30.3271 16.2251ZM32.2343 11.8026H7.77231L7.02601 8.12636H33.8098L32.2343 11.8026Z" fill="#232222"/>
</svg>
