<svg width="64" height="56" viewBox="0 0 64 56" fill="none" xmlns="http://www.w3.org/2000/svg">
<path d="M50.8388 39.0946C50.8388 34.2715 48.1245 29.2396 48.1245 29.2396C48.1245 29.2396 48.3229 25.9615 48.2654 25.5387C48.2654 25.5387 49.1998 25.3717 49.4243 28.1121C49.4243 28.1121 50.0454 26.8698 49.3668 24.9175C49.3668 24.9175 50.4995 24.4373 50.4995 22.2345C50.4995 20.0318 47.5608 18.3927 47.3937 17.2078C47.3937 17.2078 48.041 16.9259 48.7509 17.4897C48.7509 17.4897 48.9179 16.6963 47.0283 16.4144C47.0283 16.4144 47.0544 15.7358 47.0544 15.5688C47.0544 15.5688 48.3803 14.8902 48.4951 13.4756C48.4951 13.4756 47.6182 14.6344 46.9396 15.0311C46.9396 15.0311 46.2923 13.3347 47.9262 11.0745C49.56 8.8143 50.0454 7.51455 50.0454 6.24091C50.0454 6.24091 50.2125 3.24472 46.7987 3.24472C43.3849 3.24472 43.578 6.15739 42.2209 6.40795C42.2209 6.40795 42.7011 4.51314 43.6041 3.9233C43.6041 3.9233 42.4192 4.14775 41.7093 4.85765C41.7093 4.85765 41.5945 3.61533 42.8681 3.1351C42.8681 3.1351 41.6832 3.05158 41.203 3.67274C40.7228 4.29391 39.5065 0.566933 35.6073 0.566933C31.7081 0.566933 30.3822 3.56313 29.5627 3.56313C29.4635 3.56313 29.2808 3.53181 29.0303 3.49005C29.0303 3.49005 28.952 3.44307 28.8111 3.35955C28.5605 3.07768 27.9289 2.14333 28.6075 0.478195C28.6075 0.478195 27.2347 0.947982 27.2921 2.58701C27.2921 2.58701 26.5456 1.91887 26.5717 1.12546C26.5717 1.12546 26.2429 1.5587 26.3055 2.16421C26.3055 2.17987 26.3108 2.19553 26.316 2.21119C24.8701 1.6892 23.017 1.26117 21.2057 1.53782C20.0678 1.71008 18.4705 2.22163 16.8054 3.11422L16.8628 3.05158C16.8628 3.05158 16.1999 3.0829 15.6518 0.681769C15.6518 0.681769 14.326 1.41255 15.1298 4.00681C15.1298 4.00681 14.1067 4.33566 12.6295 1.07326C12.6295 1.07326 11.8987 2.84279 13.2089 5.24392C13.2089 5.24392 12.2589 5.2909 10.5729 2.90021C10.5729 2.90021 9.77949 4.6593 11.1836 7.09175C11.1836 7.09175 9.74295 6.94559 8.15611 7.57197C8.15611 7.57197 10.0561 8.24011 10.291 8.67336C10.291 8.67336 7.82204 9.61815 7.65501 10.7456C7.65501 10.7456 8.16133 10.6465 8.70942 10.5577C9.22618 10.516 9.74817 10.5786 9.75339 10.991H9.75861C9.36712 12.1341 9.12178 13.3921 9.06958 14.7701C8.32315 14.9894 7.89512 15.5792 7.89512 15.5792C9.08002 15.9394 9.1792 16.9364 9.1792 16.9364C8.55804 16.8633 8.31271 17.3696 8.31271 17.3696C9.60201 17.7246 9.99872 19.2331 10.0405 19.421C10.0405 19.4263 10.0405 19.4315 10.0405 19.4419C9.38278 19.4628 9.05915 20.0526 9.05915 20.0526C9.89954 19.9117 10.2545 20.7521 10.2597 20.7625C9.80036 20.6529 9.34102 21.0287 9.34102 21.0287C10.432 21.7334 9.99872 22.7356 10.0144 22.8296C10.0144 22.8296 6.3396 22.4068 2.75357 26.6453C-0.832472 30.8838 -0.409664 36.9858 1.17195 39.246C2.75357 41.5062 5.29563 43.0304 11.0583 42.1848C16.8211 41.3392 16.962 46.1675 16.962 46.1675C16.962 46.1675 16.962 44.5546 18.6271 44.0483C18.6271 44.0483 17.7502 45.5464 18.0895 47.2689C18.0895 47.2689 19.0238 45.6873 19.7859 45.6038C19.7859 45.6038 18.5123 47.9214 18.9664 50.6879C18.9664 50.6879 19.812 48.4852 20.7464 47.9475C20.7464 47.9475 19.6711 50.714 20.4332 52.8907C20.4332 52.8907 21.3937 50.0929 22.3802 49.6701C22.3802 49.6701 21.3362 52.0973 22.3802 54.3888C22.3802 54.3888 22.6047 52.4679 23.8783 51.3926C23.8783 51.3926 23.7374 54.1069 25.0058 54.8377C25.0058 54.8377 25.2302 51.6745 25.9662 51.1629C25.9662 51.1629 25.8253 52.4888 25.9662 52.969C25.9662 52.969 26.2794 54.608 32.0421 54.608C37.8049 54.608 39.4439 53.3083 39.4752 52.3739C39.4752 52.3739 40.1225 52.5149 40.039 54.9734C40.039 54.9734 41.5057 54.608 41.3961 51.8937C41.3961 51.8937 42.4714 51.8363 43.0613 55.3701C43.0613 55.3701 44.2201 53.8459 43.5676 51.189C43.5676 51.189 44.5019 51.3874 45.5146 54.1278C45.5146 54.1278 46.7308 52.6297 45.9948 49.9206C45.9948 49.9206 47.352 50.4269 49.0484 50.2338C49.0484 50.2338 47.3833 49.1011 47.2685 48.6209C47.2685 48.6209 49.894 48.339 50.3482 47.295C50.3482 47.295 48.3437 47.1541 48.0045 47.0393C48.0045 47.0393 50.8284 43.9178 50.8284 39.0946H50.8388Z" fill="#002855"/>
<path d="M14.4773 25.0586C14.4773 25.0586 13.5377 21.9319 8.41185 23.8162C8.41185 23.8162 8.62587 24.6253 8.53191 24.9072C8.43795 25.189 7.75937 25.022 7.81679 24.7767C7.87421 24.5313 7.81679 24.2129 7.66541 24.1346C7.51404 24.0563 1.0362 27.4336 1.60517 33.76C2.16891 40.0865 6.53793 41.3706 8.93384 41.2766C11.3297 41.1827 12.5303 39.3192 14.4825 40.9948C16.4348 42.6703 18.22 41.5794 18.862 40.9373C19.504 40.2953 20.6524 38.5832 19.029 36.0411C17.4109 33.4991 19.2744 32.8205 19.2744 32.8205C19.2744 32.8205 17.7136 32.6691 16.8054 34.7048C16.8054 34.7048 17.4474 32.1053 18.5175 31.3328C18.5175 31.3328 17.0872 31.5207 16.1633 32.7839C16.1633 32.7839 16.3721 30.6386 17.9329 29.7147C17.9329 29.7147 16.654 29.1875 15.4639 30.7691C15.4639 30.7691 15.5369 29.3754 17.1394 27.6633C17.1394 27.6633 16.0276 27.8146 15.0463 28.9995C15.0463 28.9995 14.9732 27.7363 16.7427 25.7998C16.7427 25.7998 15.5578 25.8937 14.8949 27.0056C14.8949 27.0056 14.9523 24.9907 15.9284 24.1242C15.9284 24.1242 15.0619 24.1033 14.4669 25.0638L14.4773 25.0586Z" fill="#EEEEC8"/>
<path d="M21.211 37.4922C21.211 37.4922 22.5838 37.7167 25.9767 44.894C29.3696 52.0713 38.2016 50.1869 40.7802 48.266C40.7802 48.266 41.8555 49.3569 42.3827 49.6232C42.3827 49.6232 41.6833 48.1146 41.8346 47.6814C41.8346 47.6814 42.6437 47.2481 43.625 49.0959C43.625 49.0959 43.9069 48.3599 43.2127 46.8566C43.2127 46.8566 43.8077 46.6478 44.0948 47.1959C44.3819 47.744 44.7369 47.9685 45.4729 47.911C45.4729 47.911 44.194 47.0654 44.3819 45.8753C44.3819 45.8753 48.4482 43.7299 48.6204 38.3013C48.7927 32.8727 45.76 29.9026 45.76 29.9026C45.76 29.9026 47.1537 28.0547 47.1537 24.2495C47.1537 20.4442 44.3088 17.6933 41.7459 15.5271C41.7459 15.5271 40.9942 14.9425 40.8063 14.4936C40.8063 14.4936 40.3939 14.7024 40.4305 15.0416C40.4305 15.0416 39.9972 15.0625 39.8459 14.5875C39.6945 14.1125 39.2038 13.7784 38.6401 13.7784C38.0763 13.7784 37.3612 13.7054 35.7378 15.9447C35.7378 15.9447 34.1771 15.4749 33.2689 15.8298C32.3606 16.1848 31.1757 16.8634 29.9542 18.92C29.9542 18.92 26.8276 20.6895 24.5308 24.8706C22.2341 29.0517 21.2736 35.0598 21.2162 37.4922H21.211Z" fill="#EEEEC8"/>
<path d="M21.211 38.5257C21.211 38.5257 22.4899 40.1073 23.7531 43.1192C25.0163 46.131 26.8589 51.4083 34.0362 52.0451C34.0362 52.0451 27.5374 53.5119 24.1289 46.0162C24.1289 46.0162 23.1893 46.0527 22.8083 47.0497C22.8083 47.0497 22.5995 46.2198 23.4868 44.8626C23.4868 44.8626 22.3176 44.8835 21.9992 45.7865C21.9992 45.7865 21.9261 44.5442 22.9231 43.6412C22.9231 43.6412 22.0931 43.4533 21.5294 44.2989C21.5294 44.2989 21.4146 42.7538 22.2811 42.545C22.2811 42.545 21.5294 42.1692 21.1118 42.545C21.1118 42.545 21.0387 41.6054 21.9209 41.2087C21.9209 41.2087 22.375 40.9425 21.2058 38.5153L21.211 38.5257Z" fill="#EEEEC8"/>
<path d="M43.2804 15.2609C43.2804 15.2609 47.211 18.1527 47.5502 21.4308C47.8895 24.7088 47.5502 25.3874 47.5502 25.3874C47.5502 25.3874 49.5442 25.0951 49.6225 23.216C49.6956 21.3368 45.6293 17.7403 45.6293 14.1439C45.6293 10.5474 47.0439 7.98443 47.6077 7.39981C47.6077 7.39981 46.4228 10.9545 46.6681 12.1081C46.6681 12.1081 47.3832 9.96276 48.0618 9.11192C48.7404 8.26631 48.8552 7.22756 48.8552 6.77865C48.8552 6.32974 48.6308 4.49757 46.3497 4.294C44.0686 4.08521 42.4713 7.47811 42.4713 7.47811C42.4713 7.47811 42.7532 7.8174 42.8315 8.40202C42.8315 8.40202 43.3535 7.55641 44.0999 7.29019C44.0999 7.29019 43.1342 8.53252 43.2491 9.49297C43.2491 9.49297 43.5884 8.81439 44.4757 8.43856C44.4757 8.43856 43.3065 9.68089 43.3848 10.8293C43.3848 10.8293 43.9485 9.8688 44.815 9.66001C44.815 9.66001 43.3848 11.2416 43.4213 12.3169C43.4579 13.3922 43.7345 14.2013 43.2961 15.2661L43.2804 15.2609Z" fill="#EEEEC8"/>
<path d="M19.9843 18.3041C19.9843 18.3041 20.7464 21.9214 23.2623 24.0981C23.2623 24.0981 21.2266 26.5097 20.4384 32.5543C20.4384 32.5543 20.1565 27.1778 21.853 24.5783C21.853 24.5783 19.906 21.1854 19.9895 18.3041H19.9843Z" fill="#EEEEC8"/>
<path d="M18.4027 25.3822C18.4027 25.3822 16.1425 20.4755 11.8779 21.0132C11.8779 21.0132 12.0345 20.6739 13.2037 20.4912C13.2037 20.4912 13.2611 19.7708 14.3469 18.9774C14.3469 18.9774 13.7518 19.823 13.9919 20.6321C13.9919 20.6321 14.3886 19.4733 15.8293 18.8678C15.8293 18.8678 14.7697 19.9901 14.9263 20.8305C14.9263 20.8305 15.5892 19.8543 16.8472 19.5307C16.8472 19.5307 15.6466 20.4807 15.8293 21.5038C15.8293 21.5038 16.0433 20.8305 17.7763 20.2354C17.7763 20.2354 16.3931 21.128 16.6906 22.125C16.6906 22.125 18.3296 23.8319 18.3975 25.3822H18.4027Z" fill="#EEEEC8"/>
<path d="M31.9899 5.01957C31.9899 5.01957 33.5141 3.344 35.9466 3.62587C38.3738 3.90775 40.2216 6.31932 40.7123 7.80697C40.7123 7.80697 40.3521 4.64374 37.5282 3.19263C37.5282 3.19263 37.5282 2.55058 37.8675 2.25305C37.8675 2.25305 37.168 2.34701 36.9644 2.8168C36.9644 2.8168 36.74 2.40443 37.001 1.85634C37.001 1.85634 36.1553 1.72585 35.91 2.53492C35.91 2.53492 35.4768 2.17476 35.7221 1.53793C35.7221 1.53793 34.9704 1.81981 35.0644 2.59234C35.0644 2.59234 34.652 2.51927 34.5581 1.78327C34.5581 1.78327 33.8221 2.06514 34.1039 3.21351C34.1039 3.21351 33.4462 3.19263 33.3679 2.44097C33.3679 2.44097 32.8773 2.74372 33.1435 3.51626C33.1435 3.51626 32.3135 3.97038 31.9951 5.02479L31.9899 5.01957Z" fill="#EEEEC8"/>
<path d="M41.0672 9.13274C41.0672 9.13274 41.6049 11.3251 41.276 13.5018C41.276 13.5018 41.8711 13.8045 42.4662 14.4361C42.4662 14.4361 42.3096 10.8866 41.0672 9.13274Z" fill="#EEEEC8"/>
<path d="M22.3071 19.6142C22.3071 19.6142 21.1222 18.4085 21.3832 14.5667C21.6494 10.7248 24.3011 6.60116 28.7849 6.5594C28.7849 6.5594 28.3308 5.84428 26.128 5.99565C26.128 5.99565 25.3346 5.244 24.3951 5.25966C24.3951 5.25966 24.8648 5.6929 25.0632 6.46544C25.0632 6.46544 23.8887 5.6929 22.85 5.97478C22.85 5.97478 23.4346 6.22011 23.7896 7.18056C23.7896 7.18056 22.5472 6.76819 20.9813 7.40501C20.9813 7.40501 22.0357 7.46243 22.4324 8.27151C22.4324 8.27151 20.6054 8.0053 19.5145 9.13801C19.5145 9.13801 21.284 8.72564 21.4563 9.28938C21.4563 9.28938 19.29 9.78005 18.481 11.0954C18.481 11.0954 19.9895 10.5317 21.0439 10.5891C21.0439 10.5891 18.8203 11.3982 18.0477 12.7919C18.0477 12.7919 19.1804 12.1342 20.3653 12.1133C20.3653 12.1133 18.1782 13.34 18.0477 14.4466C18.0477 14.4466 18.9507 13.6532 20.1931 13.507C20.1931 13.507 18.8724 14.598 18.648 15.6941C18.648 15.6941 19.0082 15.0156 20.287 14.8276C20.287 14.8276 19.3475 15.5636 19.1543 16.6755C19.1543 16.6755 19.6084 15.9029 20.5271 15.6941C20.5271 15.6941 20.4697 18.5181 22.2967 19.6142H22.3071Z" fill="#EEEEC8"/>
<path d="M22.1087 36.7458C22.1087 36.7458 25.6686 34.4282 27.8714 28.8325C30.0742 23.2368 40.6131 20.1571 40.6131 20.1571C40.6131 20.1571 46.3758 18.8835 46.2923 24.761C46.2923 24.761 46.2349 28.2374 45.0186 29.5633C45.0186 29.5633 48.0983 33.2641 47.7852 37.1373C47.472 41.0104 45.9478 44.231 41.5422 46.2929C37.1367 48.3547 29.2025 51.1526 25.4129 39.9664C25.4129 39.9664 24.8178 38.0194 22.1035 36.7458H22.1087Z" fill="#002855"/>
<path d="M26.5925 38.8076C26.5925 38.8076 28.383 38.7502 28.8162 40.2744C28.8162 40.2744 27.647 41.2139 27.4956 41.501C27.4956 41.501 26.3472 41.0678 26.5925 38.8076Z" fill="white"/>
<path d="M27.6886 42.331C27.6886 42.331 28.2158 41.1043 29.192 40.7285C29.192 40.7285 30.7005 41.3862 30.8884 42.592C30.8884 42.592 29.7035 44.0065 29.6252 44.4554C29.6252 44.4554 28.3098 44.2101 27.6886 42.3257V42.331Z" fill="white"/>
<path d="M30.0011 44.7216C30.0011 44.7216 30.8102 43.4793 31.3217 43.1192C31.3217 43.1192 33.2791 43.6098 33.2061 44.2101C33.2061 44.2101 32.1882 45.7552 32.2456 46.3555C32.2456 46.3555 30.4918 46.2615 30.0063 44.7164L30.0011 44.7216Z" fill="white"/>
<path d="M33.394 44.5546C33.394 44.5546 32.658 46.2302 32.8303 46.5329C33.0025 46.8357 33.7698 47.0967 34.6363 47.1176C35.5028 47.1384 36.3693 46.7574 36.4998 46.2876C36.4998 46.2876 36.86 46.2876 36.9696 46.6843C37.0792 47.081 38.8174 46.5538 39.2507 46.2511C39.6839 45.9483 41.1507 45.4211 40.9263 44.5546C40.7018 43.6881 40.0232 43.3697 39.3238 43.4793C38.6243 43.5889 36.7608 44.4032 36.6303 45.348C36.4998 46.2876 36.5155 45.8178 36.5155 45.8178C36.5155 45.8178 36.4006 44.8365 35.555 44.5546C34.7094 44.2727 33.3888 44.5546 33.3888 44.5546H33.394Z" fill="#EEEEC8"/>
<path d="M44.4863 41.5011C44.4863 41.5011 43.8286 40.859 43.2596 41.0469C42.6906 41.2348 41.0568 42.9887 41.0568 42.9887C41.0568 42.9887 40.8898 43.5368 41.2447 44.1005C41.5997 44.6643 42.3566 44.967 42.8629 44.3459C43.3692 43.7247 44.7838 42.9887 44.8047 42.0126C44.8047 42.0126 45.9374 41.6942 46.2558 40.7337C46.5742 39.7733 46.2558 39.267 46.2558 39.267C46.2558 39.267 45.144 39.0216 45.0135 38.8128C45.0135 38.8128 43.9016 39.7942 43.9956 40.1596C44.0895 40.5249 44.5593 41.0156 44.4863 41.5063V41.5011Z" fill="#EEEEC8"/>
<path d="M45.0709 37.3983C45.0709 37.3983 44.7107 38.1343 45.619 38.6249C46.522 39.1156 46.8822 37.8524 46.8822 37.8524C46.8822 37.8524 47.0701 36.5735 46.6734 36.1403C46.6734 36.1403 45.9008 36.6101 45.3528 36.6675L45.0709 37.4035V37.3983Z" fill="#EEEEC8"/>
<path d="M45.9635 33.3476C45.9635 33.3476 45.2797 33.9897 44.8673 34.1201C44.8673 34.1201 44.5489 35.2111 45.17 35.7226C45.7912 36.2342 46.5846 35.7226 46.5846 35.7226C46.5846 35.7226 46.7725 34.7831 46.4072 34.2924C46.0418 33.8017 45.9217 33.6712 45.9687 33.3528L45.9635 33.3476Z" fill="white"/>
<path d="M44.2983 30.5602C44.2983 30.5602 45.431 31.8234 45.525 32.2932C45.6189 32.763 45.5876 33.2328 44.7837 33.6504C43.9799 34.0627 44.3087 32.1262 43.7137 31.5207C43.1186 30.9204 44.3035 30.5602 44.3035 30.5602H44.2983Z" fill="white"/>
<path d="M24.0244 32.1314C24.0244 32.1314 25.8305 29.8921 25.9453 27.9659C26.0601 26.045 27.8662 22.1928 29.0355 21.4985C29.0355 21.4985 25.606 23.0645 24.8178 27.3604C24.8178 27.3604 25.131 29.5736 24.0244 32.1262V32.1314Z" fill="#002855"/>
<path d="M30.6797 19.8596C30.6797 19.8596 33.3523 18.0222 34.4276 18.0222C35.5029 18.0222 35.5603 18.2988 35.5603 18.2988C35.5603 18.2988 35.1271 16.4928 33.8639 16.665C32.6007 16.8373 31.1339 18.4189 30.6797 19.8596Z" fill="#002855"/>
<path d="M36.2545 17.8185C36.2545 17.8185 36.5938 18.8521 36.8183 19.3271C37.0427 19.8021 37.5908 20.251 37.5908 20.251C37.5908 20.251 37.8152 19.4419 37.6847 19.0348C37.5543 18.6276 37.1001 18.0482 36.2545 17.8185Z" fill="#002855"/>
<path d="M37.6326 17.1974C37.6326 17.1974 37.5752 16.6702 37.9928 16.3518C38.4103 16.0334 39.423 15.6001 39.7258 15.6523C39.7258 15.6523 39.3656 14.5248 38.1076 14.8328C36.8496 15.1408 36.7191 16.2891 36.9958 16.6597C37.2776 17.0304 37.6326 17.1974 37.6326 17.1974Z" fill="#002855"/>
<path d="M40.8114 16.31C40.8114 16.31 42.0172 16.8163 44.1626 19.6142C44.1626 19.6142 43.6562 16.5345 40.8114 16.31Z" fill="#002855"/>
<path d="M13.2298 34.7779C11.2724 34.7779 10.3693 36.0202 9.8369 36.1142C9.30969 36.2081 8.08303 36.5109 7.12257 34.7779C6.16212 33.0449 7.0495 31.6146 8.00995 31.0509C8.9704 30.4872 9.98827 29.7877 11.5908 31.3328C13.1933 32.8778 13.7205 29.9182 13.5325 29.4849C13.3446 29.0517 11.7056 27.2613 11.9979 26.3008C12.1754 26.3739 12.332 26.4627 12.4625 26.567C13.4595 27.3605 13.9136 27.9712 13.9136 27.9712C13.9136 27.9712 13.5012 25.2308 10.3902 25.1942C7.28439 25.1577 4.83628 27.5693 4.2099 28.6811C3.58873 29.7929 2.28899 33.4259 3.60961 35.4251C3.60961 35.4251 3.27032 29.7564 6.11514 27.7781C8.26572 26.28 10.2232 25.9093 11.4811 26.1547C11.4811 26.1651 11.1471 27.2195 12.1388 28.8847C13.1358 30.5602 12.1284 30.6542 11.8779 30.4297C11.6273 30.2053 10.2179 29.1874 9.02782 29.5841C7.84291 29.9808 4.9198 31.1866 5.97421 34.1254C5.97421 34.1254 4.67446 34.8979 4.52309 35.9889C4.52309 35.9889 5.5775 34.8144 6.3135 34.7257L6.50141 35.232C6.50141 35.232 5.16513 35.968 5.10771 37.0224C5.10771 37.0224 5.97421 35.8897 6.80416 35.7801C7.63412 35.6652 5.50442 37.0224 5.78629 38.0612C5.78629 38.0612 6.59537 36.4587 7.36791 36.4795C8.14044 36.5004 7.72808 37.1947 9.1009 37.1007C10.4737 37.0067 11.5855 35.1224 13.1306 35.3312C14.6757 35.54 15.5422 35.8375 16.4661 36.7614C16.4661 36.7614 15.1872 34.7831 13.2246 34.7831L13.2298 34.7779Z" fill="#002855"/>
<path d="M25.4183 21.5038C25.4183 21.5038 27.2661 18.9774 29.281 18.2622C29.281 18.2622 27.2296 17.4688 26.9634 16.0751L29.281 14.363L26.2274 13.7732C26.2274 13.7732 25.721 10.1454 28.3571 10.1454C30.9931 10.1454 31.9379 13.5017 31.8805 15.0781C31.8805 15.0781 32.1049 14.9111 32.6739 14.9842L32.5225 14.7023C32.5225 14.7023 34.172 14.316 35.1794 14.8276C35.1794 14.8276 34.1615 14.1542 33.6552 13.0789L35.8945 11.3825L33.2585 10.422C33.2585 10.422 33.2011 6.95605 35.5396 6.95605C37.8781 6.95605 38.2904 10.5734 38.2539 11.1006C38.2174 11.6278 38.2539 12.6613 38.2539 12.6613C38.2539 12.6613 39.0056 12.0976 40.2844 12.7553C40.2844 12.7553 39.9086 4.76894 35.4039 4.76894C30.8991 4.76894 31.5255 9.17449 31.5255 9.17449C31.5255 9.17449 29.1505 6.59588 26.1021 8.79866C23.0485 11.0014 21.3886 16.6128 25.4235 21.4933L25.4183 21.5038Z" fill="#EEEEC8"/>
<path d="M14.9315 43.2549L14.6287 43.5629L14.3625 44.7008C14.3625 44.7008 14.232 45.275 14.4095 45.5621C14.587 45.8491 15.8711 47.3003 15.8711 47.3003C15.8711 47.3003 16.7271 49.5605 18.6637 51.1525C20.6002 52.7446 21.4615 51.758 21.4615 51.758L21.7643 51.1943L22.281 51.236L23.158 50.1503L23.9723 50.3748L24.7135 49.1272L25.5017 49.4247L26.175 48.3338L27.1564 48.5896L27.433 48.1198C27.433 48.1198 28.785 48.9811 29.521 48.6835C30.2517 48.386 34.6625 45.8126 34.6625 45.8126L37.0637 46.6791L40.2895 44.8887C40.2895 44.8887 40.6131 44.7373 40.7228 44.2049C40.8324 43.6725 41.2656 41.4436 41.2656 41.4436C41.2656 41.4436 42.8525 41.026 43.1709 38.8911C43.1709 38.8911 44.0478 38.7658 46.355 36.9963C48.6622 35.2268 49.6174 34.5116 49.7531 33.6243C49.894 32.7369 50.7136 33.3058 50.7136 33.3058C50.7136 33.3058 51.1781 33.5303 51.6479 33.1701C52.1177 32.81 51.7419 32.3715 52.0759 32.0531C52.41 31.7347 52.9894 32.4394 53.6054 32.0374C54.2213 31.6407 53.882 31.0457 54.2474 30.7742C54.6128 30.5028 55.2131 31.1396 55.6724 30.8055C56.1318 30.4662 56.0691 29.7511 56.4293 29.4693C56.7895 29.1874 57.2801 29.8503 57.823 29.4849C58.3659 29.1195 58.653 28.4879 58.4546 26.9846L59.723 25.831C59.723 25.831 59.7752 25.1838 60.4225 24.8236C61.0697 24.4634 62.1189 24.6148 62.1189 24.6148C62.1189 24.6148 63.6536 23.6021 63.9981 22.8661C63.9981 22.8661 64.1495 20.6529 61.7692 19.3271C61.7692 19.3271 60.4486 19.4054 59.4516 20.037C59.4516 20.037 59.081 20.893 58.5799 21.2271C58.0788 21.5612 57.6299 21.5351 57.2123 21.3837L55.6672 22.2659C55.6672 22.2659 54.7589 21.1854 53.4957 21.2793C52.2325 21.3733 53.0468 22.4225 52.6188 22.72C52.1908 23.0175 51.5905 22.5216 51.0685 22.7043C50.5465 22.887 50.8702 23.6909 50.3221 24.0041C49.774 24.3173 49.466 23.6335 48.9336 23.8736C48.4012 24.1137 48.5212 24.8967 48.1454 25.2099C47.7696 25.5231 47.3833 24.8654 46.8195 25.0846C46.2558 25.3038 46.3341 26.2851 45.9844 26.5096C45.6346 26.7341 45.3789 26.1129 44.6011 26.4104C43.8234 26.708 38.092 29.5945 38.092 29.5945C38.092 29.5945 36.4059 28.7646 35.0018 29.2657C34.9287 29.2918 34.4276 29.6572 34.4276 29.6572C34.4276 29.6572 31.9586 28.5923 31.2174 28.8063C30.4762 29.0203 27.7358 30.7638 27.7358 30.7638L27.4226 33.1284L22.8448 35.968C22.8448 35.968 21.6599 36.3125 21.7799 38.4317L21.6912 39.0059L20.4854 38.8963C20.4854 38.8963 20.2296 39.0425 20.2766 39.7524L18.8412 39.8463C18.8412 39.8463 18.5802 40.3892 18.5541 40.8381L17.2648 40.8694L16.915 41.8768C16.915 41.8768 16.0329 41.7672 15.6675 41.9499C15.3021 42.1326 14.8741 42.9104 14.9524 43.2601L14.9315 43.2549Z" fill="#002855"/>
<path d="M55.7141 22.4747C55.7141 22.4747 57.2383 23.8423 57.8907 25.5492L58.9869 24.4426C58.9869 24.4426 58.3553 22.767 57.7341 22.1615C57.7341 22.1615 58.8877 22.3599 59.6864 24.7715C59.6864 24.7715 60.5216 23.9206 61.6908 24.0198L61.5029 23.6335C61.5029 23.6335 60.4798 23.2734 59.9265 24.333C59.9265 24.333 59.9474 23.7275 59.5976 23.4404C59.5976 23.4404 60.4067 22.8349 61.2784 22.9915C61.2784 22.9915 60.7095 21.1176 59.8795 20.6164C59.8795 20.6164 62.2128 21.9214 61.957 23.9885C61.957 23.9885 62.9853 23.336 63.3611 22.8297C63.3611 22.8297 63.4916 20.486 61.5551 19.6299C61.5551 19.6299 60.0831 19.9692 59.6759 20.4755C59.6759 20.4755 59.535 21.2481 58.7781 21.6761C58.0212 22.1041 57.4053 22.0258 57.066 21.9423L55.7141 22.4852V22.4747Z" fill="#EEEEC8"/>
<path d="M44.5644 37.2782C44.5644 37.2782 48.4689 35.0337 49.2153 33.7861C49.2153 33.7861 49.184 29.7668 46.5375 27.4023C46.5375 27.4023 48.5941 28.2948 49.4711 31.7295C49.4711 31.7295 49.8678 32.6847 50.6768 32.596C51.4911 32.5125 51.3032 31.813 51.3032 31.813C51.3032 31.813 50.87 32.1367 50.4785 32.1262C50.087 32.1158 49.8625 31.7347 49.7268 31.7452C49.7268 31.7452 49.92 31.3328 50.442 31.4842C50.9639 31.6356 51.2041 30.7743 51.1936 30.696C51.1832 30.6177 51.0266 28.3105 48.6829 25.925C48.6829 25.925 50.8387 26.9481 51.6895 30.3201C51.6895 30.3201 52.0705 31.2284 52.7491 31.0875C53.4277 30.9465 53.459 30.4767 53.459 30.4767L53.4747 30.2366C53.4747 30.2366 53.0989 30.6229 52.7335 30.6281C52.3681 30.6333 51.8304 30.2523 51.8304 30.2523C51.8304 30.2523 51.9401 29.9548 52.4986 30.0644C53.0571 30.174 53.3024 29.3701 53.3024 29.3701C53.3024 29.3701 52.7178 26.6245 50.8491 24.6932C50.8491 24.6932 52.8379 25.7162 53.7566 28.9578C53.7566 28.9578 54.2733 29.9026 54.8632 29.7721C55.453 29.6416 55.6409 29.0308 55.6409 29.0308C55.6409 29.0308 55.2233 29.3388 54.8423 29.344C54.4612 29.3493 54.0698 28.9369 53.9654 29.0308C53.9654 29.0308 54.1115 28.6133 54.8736 28.6498C55.6357 28.6863 55.3016 27.444 55.3016 27.444C55.3016 27.444 54.7066 25.0951 53.0153 23.4299C53.0153 23.4299 55.6618 25.1368 55.8967 27.6632C55.8967 27.6632 56.2725 28.6446 57.0137 28.5558C57.755 28.4671 58.0786 27.8303 57.9951 27.4597C57.9951 27.4597 57.6923 28.0391 56.9615 28.1226C56.9615 28.1226 56.3926 27.7102 56.1942 27.7833C56.1942 27.7833 56.3091 27.4545 56.9459 27.4806C57.5827 27.5066 57.8541 26.8228 57.755 26.2852C57.6506 25.7476 56.5387 22.433 53.814 21.77C53.814 21.77 53.4381 21.6709 53.1197 21.9371C52.8013 22.2033 53.0675 22.7722 52.5978 22.9863C52.128 23.2003 51.559 22.7983 51.1988 23.0019C50.8387 23.2055 50.9274 24.1555 50.4733 24.3695C50.0191 24.5835 49.3458 24.1607 49.0952 24.2964C48.8447 24.4322 48.7977 24.7245 48.7977 24.7245C48.7977 24.7245 48.8656 25.4083 48.3123 25.6379C47.759 25.8676 47.2526 25.4187 46.882 25.6066C46.5114 25.7945 46.6628 26.6558 46.2765 26.8437C45.8902 27.0316 45.2273 27.0316 44.8463 26.802C44.8463 26.802 40.4668 28.6707 38.6921 29.8869C38.6921 29.8869 42.3355 32.4342 43.035 36.3439C43.035 36.3439 44.2773 35.5087 45.1647 35.4356C46.0521 35.3625 46.6419 34.0471 47.2683 33.7757C47.8947 33.5043 48.662 33.3685 48.662 33.3685C48.662 33.3685 48.7298 34.3447 47.5658 34.9919C47.5658 34.9919 46.6889 35.1798 46.1669 35.4617C45.6449 35.7436 44.5279 36.8189 44.5748 37.2626L44.5644 37.2782Z" fill="#EEEEC8"/>
<path d="M41.7562 38.7658C41.7562 38.7658 42.8889 36.798 41.0724 33.9323C41.0724 33.9323 41.9128 36.3021 41.2133 37.7271L37.3141 31.1657C37.3141 31.1657 37.1157 30.7482 36.4058 30.4663C35.6959 30.1844 34.9391 29.9078 34.9391 29.9078C34.9391 29.9078 36.1187 29.2135 37.6951 29.8295C37.6951 29.8295 39.7257 30.6542 41.2655 33.0397C42.8054 35.4251 42.9411 38.2125 41.7614 38.7658H41.7562Z" fill="#EEEEC8"/>
<path d="M28.2368 30.7169L28.6544 30.8943L30.45 29.9495L29.0615 31.0875L29.4687 31.2023L30.6588 30.4767L29.9071 31.385L33.7698 32.6273C33.7698 32.6273 35.0591 31.6408 36.0091 31.338C36.0091 31.338 34.3649 29.5581 31.0398 29.3545C31.0398 29.3545 30.6327 29.3962 28.2368 30.7116V30.7169Z" fill="#EEEEC8"/>
<path d="M37.7787 44.0066C37.7787 44.0066 40.0702 42.4615 40.4878 42.3049C40.4878 42.3049 39.7518 43.2236 37.7787 44.0066Z" fill="#EEEEC8"/>
<path d="M37.8675 44.8C37.8675 44.8 39.5013 43.5368 40.2843 43.2236C40.2843 43.2236 39.4909 44.0484 37.8675 44.8Z" fill="#EEEEC8"/>
<path d="M33.4514 33.0083C33.4514 33.0083 33.7698 33.8539 34.0151 34.1671C34.0151 34.1671 33.2374 33.1493 32.6319 32.8987L33.4514 33.0135V33.0083Z" fill="#EEEEC8"/>
<path d="M22.0407 38.0716L22.3695 38.0924C22.3695 38.0924 22.1972 36.4691 23.5335 36.5526C24.8698 36.6361 25.5536 37.5339 25.5536 37.5339C25.5536 37.5339 24.5723 36.8606 23.7162 36.8084C22.8602 36.7562 22.7192 37.4922 22.6566 38.1081L22.9646 38.129C22.9646 38.129 23.0376 37.299 23.7319 37.346C24.4261 37.393 25.3605 37.7375 27.0361 39.7524C28.7116 41.7672 29.6251 44.7843 29.552 45.7552C29.4789 46.7261 29.3119 47.5665 28.6594 47.5247C28.0069 47.483 27.8817 47.2742 27.8817 47.2742L27.7564 47.4673C27.7564 47.4673 27.9443 47.6918 28.9361 47.7544C29.9278 47.817 30.7996 45.6299 28.4037 40.8798C28.4037 40.8798 29.3432 41.8925 29.8965 43.8291C30.4498 45.7604 30.0949 47.6865 29.5729 47.8849C29.0509 48.0832 28.3201 48.1407 27.6155 47.6761L27.485 47.9527C27.485 47.9527 28.5602 48.5582 29.3432 48.3964C30.1262 48.2346 30.8726 47.1332 30.5281 45.134C30.1836 43.1348 29.2127 40.4831 27.605 38.8076C25.9973 37.132 24.9846 36.1924 23.1629 36.2812C23.1629 36.2812 22.1764 36.4691 22.025 38.0663L22.0407 38.0716Z" fill="#EEEEC8"/>
<path d="M18.0162 41.1983C18.0162 41.1983 22.1503 43.8657 22.949 49.7171C22.949 49.7171 23.2517 44.5338 19.0706 41.3549C19.0706 41.3549 23.2204 43.1349 23.9407 49.7797C23.9407 49.7797 25.0839 45.4629 19.3368 40.1648L19.1646 40.2274L19.0028 41.1148L18.0162 41.1983Z" fill="#EEEEC8"/>
<path d="M19.5927 40.1805C19.5927 40.1805 24.4471 43.9492 24.6298 48.5218C24.6298 48.5218 24.9326 44.4764 20.788 40.3475C20.788 40.3475 24.3219 41.5167 25.5015 48.7462C25.5015 48.7462 25.8878 43.6569 20.9916 39.3244L20.7619 39.3087L20.574 40.1335L19.5979 40.1752L19.5927 40.1805Z" fill="#EEEEC8"/>
<path d="M21.2421 39.34C21.2421 39.34 24.9377 41.2975 26.0548 47.6239C26.0548 47.6239 26.3523 42.9887 22.1869 39.5697C22.1869 39.5697 26.1539 41.5428 26.9943 47.6813C26.9943 47.6813 27.1092 41.8299 22.2338 38.3952L21.9624 39.2774L21.2421 39.34Z" fill="#EEEEC8"/>
<path d="M22.5732 38.3483C22.5732 38.3483 26.9579 41.4437 27.6156 46.5383C27.6156 46.5383 27.4433 41.9135 23.6641 38.4945C23.6641 38.4945 27.2293 39.7577 28.6386 47.1542C28.6386 47.1542 29.1345 40.6033 23.6641 37.6071L23.4345 38.3431H22.568L22.5732 38.3483Z" fill="#EEEEC8"/>
<path d="M17.1758 48.5426C17.1758 48.5426 17.5308 48.6314 17.7552 48.5531C17.9797 48.4748 18.2824 48.2816 18.2824 48.2816C18.2824 48.2816 18.961 49.2525 19.3786 49.5344L19.0863 49.7693C19.0863 49.7693 18.0319 48.8663 17.917 48.6992C17.917 48.6992 19.1333 51.0168 20.5948 51.0899C22.0564 51.163 19.7701 46.1206 19.3107 45.5517C18.8514 44.9827 18.2824 44.0118 16.8992 42.9992L16.92 42.6703L16.3198 42.284L15.328 43.0722C15.328 43.0722 15.2706 42.4615 15.8291 42.1431C16.3876 41.8247 17.2802 42.2945 17.6613 42.5972C18.0423 42.9 19.7544 44.2728 20.7097 46.6426C21.6649 49.0124 21.9833 50.521 21.4457 51.2987C20.908 52.0765 19.0758 51.4657 17.181 48.5426H17.1758Z" fill="#EEEEC8"/>
<path d="M18.6217 48.099C18.6217 48.099 19.2481 48.8976 19.9162 48.908C20.5844 48.9185 20.5687 48.6993 20.5687 48.6993C20.5687 48.6993 20.3129 48.8089 19.9632 48.7045C19.6135 48.6001 18.9192 48.2503 18.7783 47.9841L18.6217 48.0938V48.099Z" fill="#EEEEC8"/>
<path d="M19.0967 47.8849C19.0967 47.8849 19.2585 48.339 19.9319 48.2764C20.6052 48.2138 20.2346 47.864 20.2346 47.864C20.2346 47.864 19.744 48.1616 19.3211 47.8066L19.0967 47.8797V47.8849Z" fill="#EEEEC8"/>
<path d="M17.8076 46.105L18.601 46.9976C18.601 46.9976 18.7368 47.4882 18.7263 47.8432C18.7263 47.8432 19.1648 47.6083 19.2222 47.53L19.2379 47.3108L18.8098 47.483C18.8098 47.483 19.0082 47.1176 19.1491 47.0654C19.1491 47.0654 19.1491 46.5121 18.2461 45.964L17.8076 46.1102V46.105Z" fill="#EEEEC8"/>
<path d="M17.8284 45.8127C17.8284 45.8127 17.6822 45.1915 18.0894 44.7426C18.0894 44.7426 17.5204 44.8575 17.6092 45.797C17.6092 45.797 17.1237 45.724 16.9932 43.9283C16.9932 43.9283 16.7218 44.6487 16.9201 45.0924C16.9201 45.0924 16.513 44.9358 16.7479 44.0536C16.7531 44.0275 16.8105 43.3385 16.8105 43.3385C16.8105 43.3385 17.938 44.2624 18.3869 44.8575C18.8358 45.4525 19.8954 46.841 20.0625 47.3891C20.0625 47.3891 19.8119 47.7388 19.3996 47.744C19.3996 47.744 19.6031 46.7784 18.721 45.9484C18.721 45.9484 18.1259 45.1968 17.8284 45.8127Z" fill="#EEEEC8"/>
<path d="M19.3891 50.0564C19.3891 50.0564 19.4935 49.7745 19.6031 49.7223L19.8119 49.8841C19.8119 49.8841 19.6553 50.0564 19.3839 50.0564H19.3891Z" fill="#EEEEC8"/>
<path d="M19.7544 50.2913C19.7544 50.2913 19.8954 50.046 19.9737 49.9938C19.9737 49.9938 20.1251 50.1034 20.1512 50.1608C20.1512 50.1608 19.9632 50.2704 19.7597 50.2913H19.7544Z" fill="#EEEEC8"/>
<path d="M20.2714 50.2235C20.2714 50.2235 20.1096 50.4897 20.12 50.6254C20.12 50.6254 20.4541 50.4062 20.5115 50.3644C20.5115 50.3644 20.428 50.2026 20.2714 50.2235Z" fill="#EEEEC8"/>
<path d="M17.7344 48.2503C17.7344 48.2503 18.1624 47.6657 18.1311 47.3368C18.0998 47.008 15.0201 43.7508 15.0201 43.7508C15.0201 43.7508 14.9 43.6255 15.2498 43.3906C15.5995 43.1557 16.2937 42.5554 16.3042 42.5711C16.3146 42.5867 16.633 42.7851 16.633 42.7851L15.5003 43.542C15.5003 43.542 15.2445 43.6359 15.4585 43.9074C15.6726 44.1788 18.2251 47.0445 18.2251 47.0445C18.2251 47.0445 18.5226 47.3211 18.3817 47.5195C18.2407 47.7179 18.0737 48.2346 17.7344 48.2503Z" fill="#EEEEC8"/>
<path d="M14.9156 43.9021C14.8843 43.9648 14.8112 44.7216 14.7695 44.873C14.7277 45.0244 14.6494 45.1392 14.7851 45.2645C14.9209 45.3898 17.2072 48.1407 17.2072 48.1407C17.2072 48.1407 17.3585 48.2868 17.489 48.1407C17.6195 47.9945 17.8857 47.3525 17.8857 47.3525L14.9156 43.9074V43.9021Z" fill="#EEEEC8"/>
<path d="M15.6465 43.6881C15.6465 43.6881 16.5234 43.067 16.6957 42.8582L16.4556 44.6747C16.4556 44.6747 16.0954 44.278 16.1058 44.231C16.1163 44.184 16.4243 43.8865 16.4556 43.7821C16.4556 43.7821 15.9284 43.9752 15.8866 44.0535L15.8135 43.9491C15.8135 43.9491 16.2677 43.5785 16.3929 43.3436C16.3929 43.3436 15.8083 43.709 15.6987 43.756L15.6361 43.6881H15.6465Z" fill="#464E5E"/>
<path d="M61.3307 20.9767C61.3307 20.9767 61.0853 20.7574 60.5894 20.5121L60.3441 20.2093C60.3441 20.2093 60.7147 20.2198 60.7982 20.2407C60.8818 20.2615 61.2993 20.7313 61.3307 20.9819V20.9767Z" fill="#002855"/>
<path d="M61.8265 20.8043C61.8265 20.8043 61.5811 20.5851 61.0852 20.3398L60.8399 20.037C60.8399 20.037 61.2105 20.0475 61.294 20.0683C61.3776 20.0892 61.7951 20.559 61.8265 20.8096V20.8043Z" fill="#002855"/>
<path d="M62.3589 20.6373C62.3589 20.6373 62.1135 20.3972 61.6229 20.131L61.3775 19.7969C61.3775 19.7969 61.7481 19.8021 61.8317 19.8282C61.9152 19.8543 62.3328 20.3606 62.3589 20.6373Z" fill="#002855"/>
<path d="M63.2933 21.9788C63.2933 21.9788 62.7818 22.6939 62.2076 22.9705C62.2076 22.9705 62.2963 23.2785 62.2702 23.409C62.2702 23.409 63.2254 22.6991 63.2933 21.9788Z" fill="#002855"/>
<path d="M53.814 22.339C53.814 22.339 53.9706 22.7305 54.3516 23.0071C54.7327 23.2838 55.9228 24.0929 56.1368 24.4113C56.1368 24.4113 55.4948 23.1376 54.4978 22.4695L53.814 22.339Z" fill="#232222"/>
<path d="M37.5333 30.4245C37.5333 30.4245 38.8539 31.3902 39.3237 32.0374C39.7935 32.6847 40.5451 33.191 40.5451 33.191C40.5451 33.191 40.4094 32.4446 39.9396 31.8652C39.4699 31.2858 38.1284 30.555 37.5385 30.4245H37.5333Z" fill="#002855"/>
<path d="M37.0009 40.859C36.9278 39.1626 34.7877 35.968 34.7877 35.968C31.4835 31.7399 29.7244 32.5386 29.7244 32.5386L27.4225 33.807L25.8043 34.7048L23.8364 35.7853C25.7051 35.7435 27.1563 37.6801 28.3255 38.865C29.5 40.0447 31.0659 43.8917 31.1599 45.3376C31.2486 46.7835 30.7319 47.7231 30.7319 47.7231L32.2926 46.6896L33.9003 45.7082C33.9473 45.6874 33.9838 45.6613 34.0099 45.6404L34.464 45.3637L35.3462 44.8104L37.0009 43.9022C37.3297 42.2631 37.0009 40.859 37.0009 40.859Z" fill="#EEEEC8"/>
<path d="M40.9107 39.4653C40.7749 38.5623 39.9293 36.1142 39.5013 35.3573C39.0733 34.6004 37.6744 32.2358 36.218 31.5155C36.218 31.5155 35.5864 32.0218 34.9339 32.3872C34.2815 32.7526 33.8534 32.9144 33.8534 32.9144C33.8534 32.9144 34.0674 33.4051 34.0883 33.5304C34.0883 33.5304 34.104 33.5147 34.1353 33.4938C34.1875 33.6034 34.2501 33.7235 34.318 33.854C34.318 33.854 34.3128 33.854 34.3076 33.854L34.3545 33.9271C34.8087 34.8092 35.5133 36.0985 36.265 37.1425C36.74 37.9255 37.523 39.2096 37.8884 39.6898L38.4312 40.4049L38.2329 42.1275C38.2329 42.1275 38.212 42.1431 38.2016 42.1483C38.2016 42.1483 38.212 42.1431 38.2329 42.1327L38.1233 43.067C38.1233 43.067 40.0181 42.0544 40.4931 41.6786L40.6027 42.164C40.6027 42.164 41.0412 40.3579 40.9107 39.4549V39.4653Z" fill="#EEEEC8"/>
<path d="M43.3796 20.4181C41.5318 20.1988 39.7518 21.0758 38.3946 22.2816C38.332 22.2763 38.2642 22.2659 38.1963 22.2607C36.3902 22.1145 34.6572 23.0332 33.4358 24.3017C32.919 24.7975 32.4231 25.4866 32.0212 26.1077C31.9795 26.1182 31.9377 26.1286 31.8959 26.139C31.8803 25.9981 31.8646 25.8624 31.849 25.7371C31.849 25.7371 31.8072 25.9146 31.7446 26.1808C31.1756 26.3531 30.6588 26.6662 30.1943 27.0316C28.7588 28.1539 28.1168 29.913 27.3338 31.4894C27.2294 31.6982 27.0154 32.121 26.9005 32.2932C26.8849 32.2932 26.8692 32.2932 26.8536 32.2932C26.8275 32.3089 26.8222 32.3559 26.8222 32.3507V32.3663C26.8222 32.3663 26.817 32.3924 26.8431 32.4237C26.8588 32.4394 26.8849 32.4498 26.8953 32.4498C26.911 32.4498 26.9527 32.4394 26.958 32.429C26.9945 32.4394 27.1511 32.4812 27.1668 32.4812C28.7066 32.7996 30.4031 32.9248 31.8437 32.1366C31.8437 32.0375 31.8437 31.9383 31.8437 31.8443C31.9534 32.027 32.0786 32.2045 32.2404 32.3768C34.0309 33.0658 36.0196 32.4342 37.7004 31.7452L38.4886 31.3745L39.2559 30.9674L39.3655 30.91L39.4177 30.8317C39.4856 30.7012 39.5274 30.5655 39.5639 30.4298C39.7257 30.0539 40.0024 29.5998 40.3156 29.9704L40.7853 29.7303C42.3617 28.8847 43.8651 27.9712 44.9717 26.494C45.3788 24.3956 45.3005 21.7909 43.39 20.4233L43.3796 20.4181Z" fill="#002855"/>
<path d="M26.8849 32.3402C26.8849 32.3402 29.8237 32.8674 31.4627 31.8965C31.4627 31.8965 31.3427 29.7981 31.6559 28.6654C31.6559 28.6654 31.8281 31.1971 32.5641 31.8965C32.5641 31.8965 34.5424 32.8204 39.0628 30.5759C39.0628 30.5759 39.7988 29.5424 38.5565 23.8945C38.5565 23.8945 40.2791 24.6305 40.6184 29.4328C40.6184 29.4328 43.3014 27.966 44.4602 26.2695C44.4602 26.2695 45.1962 22.5112 43.1343 21.0445C43.1343 21.0445 40.9576 20.7626 38.6139 23.0228C38.6139 23.0228 35.3359 22.0049 32.3397 26.5827C32.3397 26.5827 30.163 26.6662 28.4665 29.7773C26.7701 32.8883 26.8849 32.3506 26.8849 32.3506V32.3402Z" fill="#EEEEC8"/>
</svg>
